HIERARCHY
ROOT pelvis
{
  OFFSET 0 100 0
  CHANNELS 6 Xposition Yposition Zposition Zrotation Xrotation Yrotation
  JOINT pelvis_right_femur
  {
    OFFSET -10.78128 -3.44521 -0.5502486
    CHANNELS 3 Zrotation Xrotation Yrotation
    JOINT right_femur_tibia
    {
      OFFSET -0.8047443 -44.0398 -0.1307829
      CHANNELS 3 Zrotation Xrotation Yrotation
      JOINT right_tibia_foot
      {
        OFFSET 3.006224 -47.83518 -5
        CHANNELS 3 Zrotation Xrotation Yrotation
        End Site
        {
          OFFSET 0 -5 15
        }
      }
    }
  }
  JOINT pelvis_left_femur
  {
    OFFSET 10.78128 -3.44521 -0.5502486
    CHANNELS 3 Zrotation Xrotation Yrotation
    JOINT left_femur_tibia
    {
      OFFSET 0.8047443 -44.0398 -0.1307829
      CHANNELS 3 Zrotation Xrotation Yrotation
      JOINT left_tibia_foot
      {
        OFFSET -4.370144 -48.10324 -4.275266
        CHANNELS 3 Zrotation Xrotation Yrotation
        End Site
        {
          OFFSET 0 -5 15
        }
      }
    }
  }
  JOINT pelvis_spine1
  {
    OFFSET 0 6.468898 -3.129235
    CHANNELS 3 Zrotation Xrotation Yrotation
    JOINT spine1
    {
      OFFSET 0 23.15396 4.99043
      CHANNELS 3 Zrotation Xrotation Yrotation
      JOINT spine2
      {
        OFFSET 0 20.79997 -5.064912
        CHANNELS 3 Zrotation Xrotation Yrotation
        JOINT neck
        {
          OFFSET 0 14.38658 9.616178
          CHANNELS 3 Zrotation Xrotation Yrotation
          End Site
          {
            OFFSET 0 20 0
          }
        }
      }
      JOINT right_manubrium
      {
        OFFSET -5.722621 16.35077 3.967754
        CHANNELS 3 Zrotation Xrotation Yrotation
        JOINT right_clavicle
        {
          OFFSET -13.16364 1.694482 -4.693211
          CHANNELS 3 Zrotation Xrotation Yrotation
          JOINT right_humerus
          {
            OFFSET -28.5034 -0.3100689 -2.792744
            CHANNELS 3 Zrotation Xrotation Yrotation
            JOINT right_radius
            {
              OFFSET -25.15693 0.02248979 -1.271978
              CHANNELS 3 Zrotation Xrotation Yrotation
              End Site
              {
                OFFSET -15 0 0
              }
            }
          }
        }
      }
      JOINT left_manubrium
      {
        OFFSET 5.722621 16.35077 3.967754
        CHANNELS 3 Zrotation Xrotation Yrotation
        JOINT left_clavicle
        {
          OFFSET 13.16364 1.694482 -4.693211
          CHANNELS 3 Zrotation Xrotation Yrotation
          JOINT left_humerus
          {
            OFFSET 29.39168 -1.063119 -2.237045
            CHANNELS 3 Zrotation Xrotation Yrotation
            JOINT left_radius
            {
              OFFSET 24.59957 -0.9528479 0.9047498
              CHANNELS 3 Zrotation Xrotation Yrotation
              End Site
              {
                OFFSET 15 -0 -0
              }
            }
          }
        }
      }
    }
  }
}
MOTION
Frames: 11
Frame Time: 0.0416666666667
0 103.5113 0 -0.1044106 -0.9870961 -0.1830263 5.438738 -16.94545 10.17988 -0 34.35053 -0 -5.953781 -14.34901 -3.650685 -6.159714 8.471028 -21.06311 -0 8.008269 -0 10.45816 -14.91569 27.85788 -2.866517 -3.4301 5.046044 2.631698 10.38988 -7.62193 2.302701 21.4685 5.584342 2.155795 -24.72738 9.984328 4.59367 -20.92746 11.16344 86.0356 33.07414 -17.31654 -0 0 17.81252 -7.325147 9.096615 4.014306 6.308983 -19.45217 -0.7071654 -93.81503 22.08726 22.29291 0 0 -11.77058 13.83154 16.05835 -2.232848
0.2961351 104.0815 2.305482 -0.1905345 -0.2976123 -0.305271 5.653109 -18.83218 9.938075 -0 33.41958 -0 -6.02357 -13.86011 -3.343178 -6.230346 9.098929 -21.03125 -0 8.109125 -0 10.25689 -15.61553 27.28231 -2.892056 -3.268248 4.904441 2.791093 10.15666 -7.761245 2.133363 21.3682 5.916514 2.39063 -25.11485 10.03251 4.884609 -20.51503 11.22522 86.02705 33.81986 -17.84048 -0 0 17.14367 -7.134595 8.930744 4.003642 6.41541 -19.63431 -0.6621702 -93.52041 22.37329 21.75867 0 0 -12.84122 13.71417 15.86404 -2.045532
0.5774752 104.6343 4.809245 -0.4734655 0.1612096 -0.3877221 6.098144 -20.30636 9.526346 -0 31.95065 -0 -6.31706 -13.0718 -3.066455 -6.04416 9.430741 -20.59109 -0 9.017868 -0 9.604495 -16.02102 26.29483 -2.628167 -3.031329 4.715406 2.917504 9.994773 -7.818347 2.061009 21.22918 6.073141 2.473475 -25.48709 10.07978 4.741095 -20.25688 11.2309 86.24862 33.63372 -18.17043 -0 0 16.66392 -7.208485 8.865983 4.091284 6.506516 -19.76272 -0.660637 -93.37021 22.17283 21.47155 0 0 -13.27058 13.79895 15.66285 -2.193813
0.8506087 105.1935 7.437443 -0.6524953 0.7026041 -0.4164415 6.392552 -21.68521 9.268744 -0 30.92661 -0 -6.411115 -12.53761 -2.843057 -5.950114 9.836991 -20.37511 -0 9.472066 -0 8.945966 -16.50384 25.39229 -2.509364 -2.844334 4.547646 3.060763 9.786785 -7.921073 1.925512 21.07166 6.301291 2.622789 -25.83544 10.08342 4.877692 -19.96884 11.27116 86.27996 33.95478 -18.54254 -0 0 16.24858 -7.169129 8.84322 4.199443 6.525095 -19.82472 -0.6553657 -93.26319 22.42174 21.30705 0 0 -13.91389 13.32007 15.45922 -1.645925
1.11743 105.7442 10.18603 -0.8108613 1.123125 -0.4050016 6.642005 -22.80957 9.026818 -0 29.98732 -0 -6.515853 -12.0324 -2.654687 -5.855447 10.15628 -20.13972 -0 9.923647 -0 8.386253 -16.86996 24.61326 -2.39117 -2.68562 4.4069 3.17289 9.630794 -7.99886 1.823498 20.94224 6.473006 2.73403 -26.11415 10.08448 4.94433 -19.73852 11.30117 86.34386 34.12848 -18.84482 -0 0 15.88761 -7.178961 8.834247 4.299089 6.547962 -19.89562 -0.6616545 -93.148 22.54737 21.13996 0 0 -14.43179 13.00422 15.28194 -1.291896
1.381259 106.2931 13.04435 -0.9517088 1.529927 -0.3535677 6.858098 -23.83884 8.821954 -0 29.14987 -0 -6.583976 -11.58136 -2.490701 -5.769392 10.46217 -19.93738 -0 10.30812 -0 7.81565 -17.21342 23.85536 -2.294714 -2.540144 4.273929 3.282417 9.47611 -8.079345 1.717931 20.81035 6.642199 2.84706 -26.37384 10.07442 5.04747 -19.51847 11.33436 86.37666 34.35769 -19.13328 -0 0 15.565 -7.180486 8.844602 4.406391 6.551621 -19.9461 -0.6702021 -93.05151 22.73978 21.01829 0 0 -14.93919 12.58675 15.10437 -0.8149507
1.644292 106.8406 16.0131 -1.090397 1.901186 -0.2654752 7.06103 -24.76153 8.633469 -0 28.35873 -0 -6.645347 -11.1519 -2.348709 -5.676787 10.73746 -19.73319 -0 10.71635 -0 7.227432 -17.50954 23.10546 -2.19738 -2.401577 4.14598 3.385311 9.3311 -8.154319 1.619858 20.6808 6.794246 2.949305 -26.61197 10.05776 5.142972 -19.31446 11.36473 86.40687 34.55901 -19.39745 -0 0 15.27468 -7.193078 8.870724 4.518565 6.543407 -19.9826 -0.6828856 -92.97094 22.93517 20.92962 0 0 -15.39231 12.14223 14.92863 -0.3087434
1.908524 107.3901 19.09568 -1.232769 2.24667 -0.1427854 7.259386 -25.5953 8.46019 -0 27.60331 -0 -6.701622 -10.74057 -2.228366 -5.573645 10.98849 -19.52586 -0 11.17648 -0 6.594849 -17.76259 22.33963 -2.09537 -2.264658 4.018228 3.485316 9.18865 -8.225491 1.526809 20.55057 6.933047 3.043278 -26.83533 10.03407 5.235775 -19.11894 11.39213 86.43152 34.74138 -19.64235 -0 0 15.0125 -7.211691 8.912658 4.637147 6.519948 -19.99945 -0.6985405 -92.91255 23.15102 20.88087 0 0 -15.79196 11.6419 14.75015 0.2593389
2.175361 107.9458 22.29933 -1.384456 2.557912 0.01131501 7.460692 -26.32807 8.297949 -0 26.87373 -0 -6.762406 -10.34264 -2.132126 -5.454139 11.20873 -19.30604 -0 11.73758 -0 5.905412 -17.95921 21.54944 -1.980937 -2.126077 3.888557 3.58171 9.048892 -8.289829 1.442304 20.42225 7.053536 3.124707 -27.04186 10.00397 5.314065 -18.93097 11.41397 86.4568 34.88126 -19.8632 -0 0 14.77685 -7.239259 8.969324 4.760525 6.480557 -19.99381 -0.7170983 -92.88038 23.37757 20.87311 0 0 -16.11717 11.09458 14.56947 0.8764742
2.445645 108.5135 25.63332 -1.548574 2.825753 0.1925931 7.669385 -26.94058 8.145935 -0 26.17238 -0 -6.834344 -9.961398 -2.064242 -5.314302 11.39069 -19.06948 -0 12.44339 -0 5.148499 -18.08507 20.7318 -1.849126 -1.983338 3.755504 3.673662 8.911025 -8.344291 1.369332 20.29953 7.151083 3.189846 -27.22772 9.967502 5.370437 -18.74917 11.42784 86.48489 34.96315 -20.05378 -0 0 14.56805 -7.275578 9.039462 4.886386 6.423065 -19.9605 -0.737945 -92.88043 23.6133 20.90998 0 0 -16.34672 10.50055 14.3881 1.540387
2.719518 109.101 29.10809 -1.72659 3.035364 0.3950724 7.888063 -27.39995 8.003879 -0 25.50895 -0 -6.925013 -9.605482 -2.030467 -5.150677 11.5211 -18.8124 -0 13.34172 -0 4.319421 -18.12014 19.89191 -1.695311 -1.834788 3.618888 3.758964 8.775668 -8.384254 1.312233 20.18858 7.218741 3.233189 -27.38548 9.924706 5.395091 -18.57386 11.43072 86.518 34.96688 -20.20359 -0 0 14.38833 -7.320658 9.121085 5.011019 6.345219 -19.89369 -0.7602662 -92.91959 23.85352 20.99523 0 0 -16.45258 9.866298 14.21008 2.241387
